<svg width="33" height="32" viewBox="0 0 33 32" fill="none" xmlns="http://www.w3.org/2000/svg">
<circle cx="16.7998" cy="15" r="11.5" stroke="black"/>
<path d="M8.7998 31H24.2998" stroke="black" stroke-linecap="round" stroke-linejoin="round"/>
<path d="M18.6325 2C18.6325 1.72386 18.4086 1.5 18.1325 1.5H15.4658C15.1897 1.5 14.9658 1.72386 14.9658 2V4.66667C14.9658 4.94281 15.1897 5.16667 15.4658 5.16667H18.1325C18.4086 5.16667 18.6325 4.94281 18.6325 4.66667V2Z" fill="#A0E1E9" stroke="black" stroke-linejoin="round"/>
<path d="M7.96647 9C7.96647 8.72386 7.74261 8.5 7.46647 8.5H4.7998C4.52366 8.5 4.2998 8.72386 4.2998 9V11.6667C4.2998 11.9428 4.52366 12.1667 4.7998 12.1667H7.46647C7.74261 12.1667 7.96647 11.9428 7.96647 11.6667V9Z" fill="#A0E1E9" stroke="black" stroke-linejoin="round"/>
<path d="M29.2995 9C29.2995 8.72386 29.0756 8.5 28.7995 8.5H26.1328C25.8567 8.5 25.6328 8.72386 25.6328 9V11.6667C25.6328 11.9428 25.8567 12.1667 26.1328 12.1667H28.7995C29.0756 12.1667 29.2995 11.9428 29.2995 11.6667V9Z" fill="#A0E1E9" stroke="black" stroke-linejoin="round"/>
<path d="M7.96647 19.6667C7.96647 19.3906 7.74261 19.1667 7.46647 19.1667H4.7998C4.52366 19.1667 4.2998 19.3906 4.2998 19.6667V22.3334C4.2998 22.6096 4.52366 22.8334 4.7998 22.8334H7.46647C7.74261 22.8334 7.96647 22.6096 7.96647 22.3334V19.6667Z" fill="#A0E1E9" stroke="black" stroke-linejoin="round"/>
<path d="M29.2995 19.6667C29.2995 19.3906 29.0756 19.1667 28.7995 19.1667H26.1328C25.8567 19.1667 25.6328 19.3906 25.6328 19.6667V22.3334C25.6328 22.6096 25.8567 22.8334 26.1328 22.8334H28.7995C29.0756 22.8334 29.2995 22.6096 29.2995 22.3334V19.6667Z" fill="#A0E1E9" stroke="black" stroke-linejoin="round"/>
<path d="M16.7998 5.5V16" stroke="black"/>
<path d="M25.7998 11.5L7.7998 20" stroke="black"/>
<path d="M7.7998 11.5L25.7998 20" stroke="black"/>
<path fill-rule="evenodd" clip-rule="evenodd" d="M16.9582 14.0111C17.4234 14.077 17.8115 14.4306 17.9279 14.914L21.7998 31H11.7998L15.6732 14.914C15.8025 14.3768 16.2673 14 16.8005 14L16.9582 14.0111Z" fill="#75A8F9"/>
<path fill-rule="evenodd" clip-rule="evenodd" d="M16.9582 14.0111C17.4234 14.077 17.8115 14.4306 17.9279 14.914L21.7998 31H11.7998L15.6732 14.914C15.8025 14.3768 16.2673 14 16.8005 14L16.9582 14.0111Z" stroke="black"/>
</svg>
